<svg width="139" height="59" viewBox="0 0 139 59" fill="none" xmlns="http://www.w3.org/2000/svg">
<path d="M18 11C8.06371 11 0 19.0637 0 29C0 38.9363 8.06371 47 18 47C27.9363 47 36 38.9363 36 29C36 19.0637 27.9363 11 18 11ZM25.3089 37.4847C25.004 37.4847 24.8153 37.3903 24.5323 37.2234C20.0032 34.4944 14.7339 34.3782 9.52984 35.4452C9.24677 35.5177 8.87661 35.6339 8.66613 35.6339C7.9621 35.6339 7.51935 35.075 7.51935 34.4871C7.51935 33.7395 7.9621 33.3839 8.50645 33.2677C14.4508 31.954 20.5258 32.0702 25.7081 35.1694C26.1508 35.4524 26.4121 35.7065 26.4121 36.3669C26.4121 37.0274 25.8968 37.4847 25.3089 37.4847ZM27.2613 32.7234C26.8839 32.7234 26.6298 32.5565 26.3685 32.4185C21.8323 29.7331 15.0677 28.6516 9.05081 30.2847C8.70242 30.379 8.51371 30.4734 8.1871 30.4734C7.41048 30.4734 6.77903 29.8419 6.77903 29.0653C6.77903 28.2887 7.15645 27.7734 7.90403 27.5629C9.92177 26.9968 11.9831 26.5758 15.0024 26.5758C19.7129 26.5758 24.2637 27.7444 27.8492 29.8782C28.4371 30.2266 28.6694 30.6766 28.6694 31.3081C28.6621 32.0919 28.0524 32.7234 27.2613 32.7234ZM29.5113 27.1927C29.1339 27.1927 28.9016 27.0984 28.575 26.9097C23.4073 23.825 14.1677 23.0847 8.1871 24.754C7.92581 24.8266 7.59919 24.9427 7.25081 24.9427C6.29274 24.9427 5.55968 24.1952 5.55968 23.2298C5.55968 22.2427 6.16935 21.6839 6.82258 21.4952C9.37742 20.7476 12.2371 20.3919 15.3508 20.3919C20.6492 20.3919 26.2016 21.4952 30.2589 23.8613C30.825 24.1879 31.1952 24.6379 31.1952 25.5016C31.1952 26.4887 30.3968 27.1927 29.5113 27.1927Z" fill="#1FCF6B"/>
<path d="M39.936 47V21.368H45.648V28.424L44.976 26.36C45.744 24.632 46.944 23.32 48.576 22.424C50.24 21.528 52.304 21.08 54.768 21.08V26.792C54.512 26.728 54.272 26.696 54.048 26.696C53.824 26.664 53.6 26.648 53.376 26.648C51.104 26.648 49.296 27.32 47.952 28.664C46.608 29.976 45.936 31.944 45.936 34.568V47H39.936ZM70.4715 47.336C68.0075 47.336 65.7835 46.792 63.7995 45.704C61.8475 44.584 60.3115 43.048 59.1915 41.096C58.0715 39.144 57.5115 36.84 57.5115 34.184C57.5115 31.528 58.0715 29.224 59.1915 27.272C60.3115 25.32 61.8475 23.8 63.7995 22.712C65.7835 21.624 68.0075 21.08 70.4715 21.08C72.6155 21.08 74.5355 21.56 76.2315 22.52C77.9275 23.448 79.2715 24.872 80.2635 26.792C81.2555 28.712 81.7515 31.176 81.7515 34.184C81.7515 37.16 81.2715 39.624 80.3115 41.576C79.3515 43.496 78.0235 44.936 76.3275 45.896C74.6315 46.856 72.6795 47.336 70.4715 47.336ZM71.1915 42.2C72.6315 42.2 73.9115 41.88 75.0315 41.24C76.1835 40.6 77.0955 39.672 77.7675 38.456C78.4715 37.24 78.8235 35.816 78.8235 34.184C78.8235 32.52 78.4715 31.096 77.7675 29.912C77.0955 28.696 76.1835 27.768 75.0315 27.128C73.9115 26.488 72.6315 26.168 71.1915 26.168C69.7515 26.168 68.4555 26.488 67.3035 27.128C66.1835 27.768 65.2715 28.696 64.5675 29.912C63.8955 31.096 63.5595 32.52 63.5595 34.184C63.5595 35.816 63.8955 37.24 64.5675 38.456C65.2715 39.672 66.1835 40.6 67.3035 41.24C68.4555 41.88 69.7515 42.2 71.1915 42.2ZM78.9675 47V40.952L79.2075 34.136L78.7275 27.32V11.384H84.6795V47H78.9675ZM104.625 47.336C101.777 47.336 99.2806 46.776 97.1366 45.656C95.0246 44.504 93.3766 42.936 92.1926 40.952C91.0406 38.968 90.4646 36.712 90.4646 34.184C90.4646 31.624 91.0246 29.368 92.1446 27.416C93.2966 25.432 94.8646 23.88 96.8486 22.76C98.8646 21.64 101.153 21.08 103.713 21.08C106.209 21.08 108.433 21.624 110.385 22.712C112.337 23.8 113.873 25.336 114.993 27.32C116.113 29.304 116.673 31.64 116.673 34.328C116.673 34.584 116.657 34.872 116.625 35.192C116.625 35.512 116.609 35.816 116.577 36.104H95.2166V32.12H113.409L111.057 33.368C111.089 31.896 110.785 30.6 110.145 29.48C109.505 28.36 108.625 27.48 107.505 26.84C106.417 26.2 105.153 25.88 103.713 25.88C102.241 25.88 100.945 26.2 99.8246 26.84C98.7366 27.48 97.8726 28.376 97.2326 29.528C96.6246 30.648 96.3206 31.976 96.3206 33.512V34.472C96.3206 36.008 96.6726 37.368 97.3766 38.552C98.0806 39.736 99.0726 40.648 100.353 41.288C101.633 41.928 103.105 42.248 104.769 42.248C106.209 42.248 107.505 42.024 108.657 41.576C109.809 41.128 110.833 40.424 111.729 39.464L114.945 43.16C113.793 44.504 112.337 45.544 110.577 46.28C108.849 46.984 106.865 47.336 104.625 47.336ZM122.436 47V21.368H128.148V28.424L127.476 26.36C128.244 24.632 129.444 23.32 131.076 22.424C132.74 21.528 134.804 21.08 137.268 21.08V26.792C137.012 26.728 136.772 26.696 136.548 26.696C136.324 26.664 136.1 26.648 135.876 26.648C133.604 26.648 131.796 27.32 130.452 28.664C129.108 29.976 128.436 31.944 128.436 34.568V47H122.436Z" fill="#1FCF6B"/>
</svg>
